HIERARCHY
ROOT Hips
{
	OFFSET 0.000000 0.000000 0.000000 
	CHANNELS 6 Xposition Yposition Zposition Yrotation Zrotation Xrotation 
	JOINT Lumbar
	{
		OFFSET 0.000000 0.000000 0.000000 
		CHANNELS 3 Zrotation Xrotation Yrotation
		JOINT Neck
		{
			OFFSET 0.000000 0.445665 0.000000 
			CHANNELS 3 Zrotation Xrotation Yrotation
			End Site
			{
				OFFSET 0.000000 0.227535 0.000000 
			}
		}
		JOINT RightShoulder
		{
			OFFSET 0.019635 0.377685 0.194865 
			CHANNELS 3 Zrotation Xrotation Yrotation
			JOINT RightElbow
			{
				OFFSET 0.000000 -0.243375 0.000000 
				CHANNELS 2 Zrotation Yrotation
				JOINT RightWrist
				{
					OFFSET 0.000000 -0.264825 0.000000 
					CHANNELS 2 Zrotation Xrotation
					End Site
					{
						OFFSET 0.006600 -0.176220 0.000990 
					}
				}
			}
		}
		JOINT LeftShoulder
		{
			OFFSET 0.019635 0.377685 -0.194865 
			CHANNELS 3 Zrotation Xrotation Yrotation
			JOINT LeftElbow
			{
				OFFSET 0.000000 -0.243375 0.000000 
				CHANNELS 2 Zrotation Yrotation
				JOINT LeftWrist
				{
					OFFSET 0.000000 -0.264825 0.000000 
					CHANNELS 2 Zrotation Xrotation
					End Site
					{
						OFFSET 0.006600 -0.176220 -0.000990 
					}
				}
			}
		}
	}
	JOINT RightHip
	{
		OFFSET 0.052140 -0.069960 0.075570 
		CHANNELS 3 Zrotation Xrotation Yrotation
		JOINT RightKnee
		{
			OFFSET 0.000000 -0.402270 0.000000 
			CHANNELS 1 Zrotation
			JOINT RightAnkle
			{
				OFFSET 0.000000 -0.404085 0.000000 
				CHANNELS 3 Zrotation Xrotation Yrotation
				End Site
				{
					OFFSET 0.204105 -0.089430 0.008415 
				}
			}
		}
	}
	JOINT LeftHip
	{
		OFFSET 0.052140 -0.069960 -0.075570 
		CHANNELS 3 Zrotation Xrotation Yrotation
		JOINT LeftKnee
		{
			OFFSET 0.000000 -0.402270 0.000000 
			CHANNELS 1 Zrotation
			JOINT LeftAnkle
			{
				OFFSET 0.000000 -0.404085 0.000000 
				CHANNELS 3 Zrotation Xrotation Yrotation
				End Site
				{
					OFFSET 0.204105 -0.089430 -0.008415 
				}
			}
		}
	}
}
MOTION
Frames: 11
Frame Time: 0.02
0.44894 -0.2967 -0.08265 -535.87255 1.2437 -0.35606 15.77956 3.67938 -0.02287 -0.79361 0.58176 -0.83079 35.32598 0.11948 11.4384 128.82546 99.54255 12.69884 0.86696 36.44289 -1.41094 -9.27896 133.90557 -113.73083 16.79153 -2.61549 75.3889 0.10392 -12.14629 -92.51315 -9.5594 -4.28708 -3.06044 107.738 -2.57942 24.69919 -69.61238 -16.03673 2.89729 2.57815
0.44965 -0.29727 -0.08201 -535.66312 1.22102 -0.36948 16.17799 3.69918 -0.20205 -0.7033 0.44522 -0.83079 35.72668 -0.07239 11.18605 128.83457 100.02851 12.87205 0.89168 36.73374 -1.66379 -9.11155 133.67624 -113.96242 16.92207 -2.70019 76.18826 -0.76005 -11.80028 -93.46594 -9.57648 -4.34476 -3.09362 107.63487 -2.03993 23.95173 -68.64774 -16.09393 2.89758 2.58055
0.45011 -0.29766 -0.0812 -535.41664 1.11492 -0.40328 16.65178 3.72691 -0.36564 -0.57308 0.31965 -0.83079 36.28514 -0.26912 10.90176 128.77052 100.64424 13.10685 0.9011 37.10764 -1.92247 -8.92802 133.37766 -113.87441 17.0072 -2.74592 77.16276 -1.77087 -11.40861 -94.48122 -9.64804 -4.34675 -3.09808 107.41077 -1.55776 23.09676 -67.75255 -16.08362 2.8633 2.5586
0.45065 -0.29814 -0.08048 -535.18971 1.04338 -0.4281 17.09323 3.74853 -0.53134 -0.46162 0.19479 -0.83079 36.76427 -0.46032 10.63341 128.74145 101.19541 13.30744 0.91842 37.44548 -2.16693 -8.75571 133.1138 -113.94032 17.11155 -2.80819 78.05972 -2.70776 -11.02272 -95.45639 -9.69543 -4.37415 -3.11568 107.23772 -1.06121 22.23936 -66.86656 -16.10799 2.84515 2.54821
0.4513 -0.29863 -0.07972 -534.94987 0.98243 -0.4522 17.53028 3.7811 -0.72111 -0.3452 0.045 -0.83079 37.27639 -0.66676 10.35724 128.70674 101.76778 13.53307 0.93168 37.78022 -2.46326 -8.56601 132.83378 -113.98327 17.22507 -2.87756 78.95558 -3.67937 -10.69816 -96.48522 -9.74067 -4.40237 -3.13361 107.08205 -0.51435 21.59627 -65.80345 -16.11571 2.82698 2.53684
0.45167 -0.29903 -0.07899 -534.72868 0.88 -0.48281 17.99383 3.79253 -0.85575 -0.22995 -0.04958 -0.83079 37.75683 -0.84175 10.09089 128.6663 102.32679 13.722 0.95092 38.14 -2.65215 -8.40943 132.57182 -113.991 17.30695 -2.9218 79.89285 -4.61179 -10.23727 -97.41756 -9.80214 -4.41534 -3.1438 106.86128 -0.0843 20.4864 -65.13538 -16.14056 2.80006 2.52128
0.45142 -0.29924 -0.07838 -534.56827 0.69521 -0.52207 18.50159 3.74471 -0.84328 -0.13439 0.00135 -0.83079 38.11346 -0.93365 9.85432 128.62118 102.83038 13.79035 0.97582 38.54353 -2.53879 -8.34379 132.37793 -114.00544 17.3196 -2.90986 80.89643 -5.40075 -9.3928 -98.04435 -9.90816 -4.39758 -3.13914 106.48894 0.01171 18.06092 -65.44846 -16.24669 2.75645 2.50032
0.45089 -0.29937 -0.07782 -534.42815 0.46976 -0.5679 19.03461 3.67519 -0.77517 -0.04027 0.10828 -0.83079 38.43266 -0.99281 9.63004 128.57366 103.31521 13.82067 1.0093 38.96965 -2.31769 -8.31287 132.20489 -113.99093 17.30077 -2.87337 81.93549 -6.14432 -8.41662 -98.57648 -10.02628 -4.36648 -3.12762 106.05577 -0.00408 15.17922 -66.17465 -16.36935 2.70521 2.4758
0.45044 -0.29953 -0.07725 -534.2787 0.2562 -0.61339 19.56246 3.61476 -0.73131 0.05812 0.19247 -0.83079 38.76691 -1.06351 9.40351 128.53142 103.79901 13.87113 1.04888 39.38812 -2.14782 -8.26916 132.02166 -113.9687 17.29075 -2.84501 82.9605 -6.90777 -7.51213 -99.16519 -10.13043 -4.34286 -3.11957 105.6507 0.04817 12.54034 -66.77046 -16.47313 2.6578 2.45256
0.45016 -0.29972 -0.07662 -534.12809 0.06853 -0.64826 20.06685 3.55751 -0.69147 0.14155 0.26575 -0.83079 39.11329 -1.14808 9.16112 128.46931 104.32296 13.91119 1.04781 39.79865 -1.9675 -8.21258 131.83838 -114.01579 17.30041 -2.82671 83.98288 -7.68016 -6.55407 -99.69439 -10.27235 -4.31178 -3.10931 105.23785 0.02772 9.74662 -67.12177 -16.62238 2.60748 2.42977
0.44947 -0.29983 -0.07613 -533.98561 -0.18295 -0.70675 20.62454 3.48884 -0.63004 0.25669 0.37473 -0.83079 39.42555 -1.19645 8.95588 128.44858 104.76301 13.96365 1.13102 40.22981 -1.78469 -8.19084 131.66181 -113.9256 17.26465 -2.78387 85.01701 -8.42051 -5.67941 -100.32994 -10.33763 -4.29324 -3.10208 104.83043 0.13041 7.1701 -68.08554 -16.68191 2.56209 2.40569
